<svg width="65" height="40" viewBox="0 0 65 40" fill="none" xmlns="http://www.w3.org/2000/svg">
<rect width="65" height="40" fill="#E5E5E5"/>
<rect width="1440" height="960" transform="translate(-1255 -15)" fill="#F6F6FF"/>
<rect x="-1255" y="-15" width="1440" height="70" fill="white"/>
<rect x="0.599976" width="64" height="40" rx="4" fill="#2E2E99"/>
<path d="M43.8 19.9813L47.1 16.6813L48.0426 17.624L43.8 21.8667L39.5573 17.624L40.5 16.6813L43.8 19.9813Z" fill="white"/>
<path d="M30.2 28H17.4V26.4C17.4 25.3391 17.8215 24.3217 18.5716 23.5716C19.3217 22.8214 20.3392 22.4 21.4 22.4H26.2C27.2609 22.4 28.2783 22.8214 29.0285 23.5716C29.7786 24.3217 30.2 25.3391 30.2 26.4V28ZM23.8 20.8C23.1697 20.8 22.5455 20.6759 21.9631 20.4346C21.3808 20.1934 20.8516 19.8398 20.4059 19.3941C19.9602 18.9484 19.6066 18.4193 19.3654 17.8369C19.1242 17.2545 19 16.6304 19 16C19 15.3697 19.1242 14.7455 19.3654 14.1631C19.6066 13.5808 19.9602 13.0516 20.4059 12.6059C20.8516 12.1602 21.3808 11.8066 21.9631 11.5654C22.5455 11.3242 23.1697 11.2 23.8 11.2C25.0731 11.2 26.294 11.7057 27.1941 12.6059C28.0943 13.5061 28.6 14.727 28.6 16C28.6 17.2731 28.0943 18.494 27.1941 19.3941C26.294 20.2943 25.0731 20.8 23.8 20.8Z" fill="white"/>
<path d="M23.8 20.8C23.1697 20.8 22.5455 20.6759 21.9631 20.4346C21.3808 20.1934 20.8516 19.8398 20.4059 19.3941C19.9602 18.9484 19.6066 18.4193 19.3654 17.8369C19.1242 17.2545 19 16.6304 19 16C19 15.3697 19.1242 14.7455 19.3654 14.1631C19.6066 13.5808 19.9602 13.0516 20.4059 12.6059C20.8516 12.1602 21.3808 11.8066 21.9631 11.5654C22.5455 11.3242 23.1697 11.2 23.8 11.2C25.0731 11.2 26.294 11.7057 27.1941 12.6059C28.0943 13.5061 28.6 14.727 28.6 16C28.6 17.2731 28.0943 18.494 27.1941 19.3941C26.294 20.2943 25.0731 20.8 23.8 20.8Z" fill="#7878FE"/>
</svg>
